<?xml version="1.0" encoding="UTF-8"?>
<!-- Generated by Pixelmator Pro 3.5.6 -->
<svg width="800" height="800" viewBox="0 0 800 800" xmlns="http://www.w3.org/2000/svg">
    <path id="path1" fill="#000000" fill-rule="evenodd" stroke="none" d="M 400 800 L 800 800 L 800 400 L 400 400 Z"/>
    <path id="path2" fill="#000000" fill-rule="evenodd" stroke="none" d="M 0 400 L 400 400 L 400 0 L 0 0 Z"/>
    <path id="-" fill="#ffffff" fill-rule="evenodd" stroke="none" d="M 400 400 L 800 400 L 800 0 L 400 0 Z"/>
    <path id="--2" fill="#ffffff" fill-rule="evenodd" stroke="none" d="M 0 800 L 400 800 L 400 400 L 0 400 Z"/>
    <path id="A" fill="#ffffff" fill-rule="evenodd" stroke="none" d="M 185.054001 90.343994 L 215.792007 90.343994 L 301.802002 290 L 261.194 290 L 242.582001 244.315979 L 156.007996 244.315979 L 137.960007 290 L 98.197998 290 Z M 230.173996 213.859985 L 199.436005 132.643982 L 168.134003 213.859985 Z"/>
    <path id="T" fill="#000000" fill-rule="evenodd" stroke="none" d="M 182.233994 522.492004 L 121.040001 522.492004 L 121.040001 490.343994 L 278.959991 490.343994 L 278.959991 522.492004 L 217.766006 522.492004 L 217.766006 690 L 182.233994 690 Z"/>
    <path id="O" fill="#ffffff" fill-rule="evenodd" stroke="none" d="M 494.109009 591.018005 C 494.109009 575.037903 496.740967 560.515076 502.005005 547.448975 C 507.269012 534.382935 514.553955 523.244019 523.859985 514.031982 C 533.166077 504.819946 544.257935 497.723022 557.135986 492.740997 C 570.014038 487.758972 584.16095 485.268005 599.577026 485.268005 C 615.181091 485.079987 629.468933 487.382965 642.440979 492.177002 C 655.413086 496.971039 666.598938 503.973969 675.999023 513.186035 C 685.399048 522.398071 692.730957 533.489929 697.994995 546.462036 C 703.259033 559.434082 705.890991 573.909912 705.890991 589.890015 C 705.890991 605.49408 703.259033 619.687927 697.994995 632.471985 C 692.730957 645.256042 685.399048 656.253967 675.999023 665.466003 C 666.598938 674.67804 655.413086 681.868958 642.440979 687.039001 C 629.468933 692.209045 615.181091 694.888 599.577026 695.075989 C 584.16095 695.075989 570.014038 692.585022 557.135986 687.603027 C 544.257935 682.620972 533.166077 675.571045 523.859985 666.453003 C 514.553955 657.334961 507.269012 646.384033 502.005005 633.599976 C 496.740967 620.815918 494.109009 606.62207 494.109009 591.018005 Z M 531.333008 588.761963 C 531.333008 599.478027 532.977966 609.347961 536.268005 618.372009 C 539.558044 627.396057 544.210999 635.197998 550.22699 641.778015 C 556.243042 648.358032 563.43396 653.527954 571.799988 657.287964 C 580.166016 661.048035 589.518921 662.927979 599.859009 662.927979 C 610.199036 662.927979 619.598938 661.048035 628.059021 657.287964 C 636.519043 653.527954 643.756958 648.358032 649.77301 641.778015 C 655.789001 635.197998 660.441956 627.396057 663.731995 618.372009 C 667.022034 609.347961 668.666992 599.478027 668.666992 588.761963 C 668.666992 578.797974 667.022034 569.492065 663.731995 560.843994 C 660.441956 552.195923 655.789001 544.629028 649.77301 538.143005 C 643.756958 531.656982 636.519043 526.581055 628.059021 522.915039 C 619.598938 519.249023 610.199036 517.416016 599.859009 517.416016 C 589.518921 517.416016 580.166016 519.249023 571.799988 522.915039 C 563.43396 526.581055 556.243042 531.656982 550.22699 538.143005 C 544.210999 544.629028 539.558044 552.195923 536.268005 560.843994 C 532.977966 569.492065 531.333008 578.797974 531.333008 588.761963 Z"/>
    <path id="U" fill="#000000" fill-rule="evenodd" stroke="none" d="M 680.369995 216.679993 C 680.369995 228.712036 678.302002 239.56897 674.166016 249.250977 C 670.029968 258.933044 664.390015 267.157959 657.245972 273.926025 C 650.10199 280.694031 641.642029 285.911011 631.866028 289.576996 C 622.089966 293.243011 611.468079 295.075989 600 295.075989 C 588.531921 295.075989 577.910034 293.243011 568.133972 289.576996 C 558.357971 285.911011 549.851013 280.694031 542.612976 273.926025 C 535.374939 267.157959 529.735046 258.933044 525.692993 249.250977 C 521.651001 239.56897 519.630005 228.712036 519.630005 216.679993 L 519.630005 90.343994 L 555.161987 90.343994 L 555.161987 215.552002 C 555.161987 220.440002 555.914001 225.562988 557.41803 230.921021 C 558.921997 236.279053 561.412964 241.213989 564.890991 245.726013 C 568.369019 250.238037 572.974976 253.950989 578.708984 256.86499 C 584.443054 259.778992 591.539978 261.236023 600 261.236023 C 608.460022 261.236023 615.556946 259.778992 621.291016 256.86499 C 627.025024 253.950989 631.630981 250.238037 635.109009 245.726013 C 638.587036 241.213989 641.078003 236.279053 642.58197 230.921021 C 644.085999 225.562988 644.838013 220.440002 644.838013 215.552002 L 644.838013 90.343994 L 680.369995 90.343994 Z"/>
</svg>
